<?xml version="1.0" encoding="UTF-8"?>
<svg width="87px" height="50px" viewBox="0 0 87 50" version="1.1" xmlns="http://www.w3.org/2000/svg" xmlns:xlink="http://www.w3.org/1999/xlink">
    <!-- Generator: Sketch 52.6 (67491) - http://www.bohemiancoding.com/sketch -->
    <title>Blu ray 3D</title>
    <desc>Created with Sketch.</desc>
    <g id="Page-1" stroke="none" stroke-width="1" fill="none" fill-rule="evenodd">
        <g id="Blu-ray-3D" fill="#007DC5">
            <path d="M0,40.7082677 L0,39.8913386 C0.144094488,38.8897638 0.572834646,37.888189 0.934251969,37.15 C1.07086614,36.8732283 1.15551181,36.5519685 1.4015748,36.3885827 L11.146063,36.3885827 C9.47362205,39.6933071 14.2062992,39.8755906 17.1574803,39.6566929 C19.6488189,39.4740157 21.996063,38.8224409 23.226378,37.6748031 C23.6858268,37.2440945 24.3933071,36.3232283 24.2185039,35.5161417 C24.0917323,34.9452756 23.2362205,34.6185039 22.4653543,34.4645669 C19.9007874,33.9570866 16.8346457,34.4858268 14.1799213,34.2897638 C15.0047244,32.8708661 15.6216535,31.8925197 16.4559055,30.5547244 C16.6366142,30.2681102 17.0055118,29.4972441 17.3326772,29.3877953 C17.738189,29.2531496 18.5783465,29.3877953 19.2570866,29.3877953 C22.6271654,29.3877953 25.9240157,29.7185039 27.9519685,28.3976378 C28.5055118,28.0362205 29.6704724,27.0098425 29.4688976,26.0043307 C29.3456693,25.3929134 28.4787402,25.0913386 27.6023622,24.9547244 C24.0480315,24.4031496 20.5586614,25.0700787 18.792126,26.4137795 C18.4401575,26.6791339 18.2098425,27.0385827 17.8559055,27.1114173 C17.1464567,27.2594488 16.2255906,27.1114173 15.4066929,27.1114173 L7.93543307,27.1114173 C12.1283465,21.1559055 22.2783465,19.2200787 32.9685039,20.1102362 C35.903937,20.3562992 39.9082677,20.9444882 40.4964567,23.3783465 C40.7830709,24.5606299 40.1350394,25.9622047 39.5622047,26.8212598 C37.8838583,29.3358268 35.0350394,30.9102362 31.742126,31.4311024 C33.6240157,31.853937 35.3177165,32.5728346 35.0102362,34.9893701 C34.8543307,36.2255906 33.9511811,37.5287402 33.0858268,38.5496063 C28.8968504,43.4901575 21.1,45.0838583 12.0204724,45.0838583 C8.31220472,45.0838583 4.79055118,44.7956693 2.39330709,43.6267717 C1.24173228,43.0653543 0.167322835,42.1346457 0,40.7082677" id="Path"></path>
            <path d="M48.4897638,20.1102362 L63.0208661,20.1102362 C68.384252,20.1102362 74.8645669,19.5181102 77.4905512,22.2114173 C78.0074803,22.742126 78.5480315,23.6858268 78.6574803,24.6625984 C78.938189,27.15 77.6673228,29.5031496 76.7889764,31.0814961 C72.8519685,38.1732283 66.969685,43.2751969 57.4173228,44.6188976 C54.9527559,44.9649606 52.3232283,44.9110236 49.4838583,44.9110236 L33.0283465,44.9110236 C32.7996063,44.9110236 33.0669291,44.5748031 33.1437008,44.4437008 C33.7838583,43.3574803 34.6468504,42.169685 35.3602362,41.0602362 C37.830315,37.2232283 40.2602362,33.1362205 42.8307087,29.3877953 L52.4598425,29.3877953 C52.6732283,29.4952756 52.3232283,29.8185039 52.2251969,29.9720472 C50.2988189,32.9940945 48.1787402,36.2677165 46.215748,39.3070866 L54.2665354,39.3070866 C59.2858268,39.3070866 62.5133858,36.9059055 64.8299213,33.8822835 C65.3968504,33.1401575 65.9102362,32.3732283 66.4043307,31.4311024 C66.953937,30.3834646 67.6385827,28.8685039 67.161811,27.5787402 C66.2161417,25.0141732 60.6641732,25.6543307 57.0673228,25.6543307 L45.1062992,25.6543307 C44.8929134,25.5468504 45.223622,25.1968504 45.3389764,25.0122047 C45.7523622,24.3488189 46.1830709,23.6759843 46.6232283,22.9688976 C47.242126,21.9767717 47.838189,20.957874 48.4897638,20.1102362" id="Path"></path>
            <path d="M29.9807087,0.383070866 C29.6767717,0.383070866 28.7909449,0.665354331 27.9444882,1.91299213 C27.0728346,3.16102362 23.3003937,9.4015748 22.5771654,10.5641732 C21.8503937,11.7161417 22.0925197,12.2783465 22.8559055,12.2783465 L24.5559055,12.2783465 C25.384252,12.2783465 26.042126,11.3271654 26.3968504,10.7685039 C26.7551181,10.1755906 31.2614173,2.92716535 31.9051181,1.86062992 C32.5598425,0.786220472 32.1366142,0.383070866 31.6988189,0.383070866 L29.9807087,0.383070866" id="Path"></path>
            <path d="M14.7070866,12.2444882 C17.5425197,12.1251969 19.4846457,12.0889764 21.7165354,7.93346457 C22.703937,6.08543307 19.9444882,5.98228346 19.9444882,5.98228346 C19.5937008,5.98228346 22.4507874,6.12322835 23.9952756,2.89015748 C25.4023622,-0.0177165354 22.8704724,0.208267717 22.4114173,0.17007874 C20.3137795,-0.0578740157 16.346063,-0.0578740157 13.3370079,0.179133858 C12.6822835,0.179133858 11.9917323,1.02401575 11.626378,1.53031496 C11.2677165,2.06299213 6.68149606,9.54448819 6.0015748,10.6708661 C5.30354331,11.7594488 5.93307087,12.2062992 6.72874016,12.2440945 C8.82244094,12.3673228 11.5314961,12.3854331 14.7070866,12.2444882 M17.1374016,8.34370079 C16.3704724,9.96574803 14.8948819,10.003937 14.1027559,10.003937 L11.8897638,10.003937 C11.6003937,10.003937 11.2677165,10.003937 11.6291339,9.44527559 C11.9905512,8.88110236 12.5370079,8.01102362 12.7862205,7.64409449 C13.0322835,7.24448819 13.242126,7.16653543 13.6830709,7.16653543 L16.1133858,7.16653543 C16.5877953,7.16653543 17.7271654,7.11377953 17.1374016,8.34370079 M19.2712598,3.53346457 C18.5047244,5.14094488 16.942126,5.18110236 16.1570866,5.18110236 L14.8767717,5.18110236 C14.5948819,5.18110236 14.2692913,5.18110236 14.6417323,4.61889764 C14.996063,4.06023622 15.4988189,3.18661417 15.7484252,2.8015748 C15.9834646,2.42716535 16.2185039,2.32598425 16.6452756,2.32598425 L18.2547244,2.32598425 C18.7287402,2.32519685 19.8645669,2.3 19.2712598,3.53346457" id="Shape" fill-rule="nonzero"></path>
            <path d="M47.0047244,6.29094488 C46.1511811,6.29094488 45.8401575,6.8984252 45.6846457,7.13897638 C45.5326772,7.39370079 45.3625984,7.55669291 45.1783465,7.92755906 C44.9901575,8.3019685 45.0409449,8.74291339 45.3086614,8.74291339 L47.7173228,8.74291339 C48.3610236,8.74291339 48.784252,8.52401575 49.0122047,8.17165354 C49.2291339,7.82440945 49.3232283,7.64724409 49.6523622,7.11732283 C49.9704724,6.60551181 49.561811,6.29094488 49.2255906,6.29094488 L47.0047244,6.29094488" id="Path"></path>
            <path d="M64.0905512,6.79015748 C62.6834646,6.79015748 62.2456693,6.87165354 60.9653543,6.91338583 C60.4988189,6.91338583 59.8622047,7.33858268 59.5440945,7.85393701 L58.3433071,9.87204724 C56.8858268,12.1795276 60.0755906,12.3496063 62.5244094,12.3496063 C66.488189,12.3496063 68.3799213,11.2681102 68.3799213,11.2681102 C68.8464567,11.0133858 69.4685039,10.3767717 69.7870079,9.87204724 L72.3370079,5.74724409 C72.6625984,5.24251969 72.7240157,4.44685039 72.4779528,3.98779528 C72.4779528,3.98779528 72.1055118,3.26062992 68.1413386,3.26062992 C64.2244094,3.26062992 62.6838583,3.89527559 62.6838583,3.89527559 C62.2098425,4.06535433 61.7,4.45393701 61.5374016,4.72716535 C61.3527559,5.00944882 61.5988189,5.20472441 62.0543307,5.20472441 L67.8811024,5.20472441 C68.3511811,5.20472441 68.5102362,5.59527559 68.2248031,5.9984252 C67.7547244,6.72362205 66.9082677,6.79055118 66.9082677,6.79055118 L64.0905512,6.79055118 M66.3362205,9.48661417 L66.2964567,9.54645669 C65.9240157,10.1503937 65.2007874,10.6208661 64.6759843,10.6208661 L63.5114173,10.6877953 L62.4877953,10.6208661 C61.9669291,10.6208661 61.8295276,10.1507874 62.2019685,9.54645669 L62.2452756,9.48661417 C62.6251969,8.87913386 63.3484252,8.38740157 63.8692913,8.38740157 L66.053937,8.38740157 C66.5858268,8.38700787 66.7125984,8.87913386 66.3362205,9.48661417" id="Shape" fill-rule="nonzero"></path>
            <path d="M56.3901575,6.08661417 C56.7086614,5.56062992 57.3594488,5.15354331 57.8295276,5.15354331 L59.6271654,5.15354331 C59.8767717,5.15354331 60.715748,5.10826772 60.8027559,4.52440945 C60.9330709,3.59133858 58.9401575,3.35787402 58.3035433,3.35787402 C55.634252,3.35787402 54.1551181,3.53503937 52.6141732,5.76102362 C51.4822835,7.56417323 50.3574803,9.42677165 49.561811,10.7685039 C48.8566929,11.9673228 49.5003937,12.2783465 49.8728346,12.2783465 L51.4822835,12.2783465 C52.1114173,12.2783465 52.5889764,12.2240157 53.5110236,10.7685039 L56.3901575,6.08661417" id="Path"></path>
            <path d="M44.6937008,4.89685039 L42.1291339,9.07440945 C41.8397638,9.60433071 42.1255906,9.82677165 42.4220472,9.82677165 L43.2610236,9.82677165 C43.6011811,9.82677165 44.0279528,10.1232283 43.7023622,10.6712598 C43.384252,11.1811024 43.2866142,11.3964567 43.0622047,11.7456693 C42.8417323,12.1035433 42.4185039,12.3007874 41.7673228,12.3007874 L40.6641732,12.3007874 C39.9586614,12.3007874 40.3350394,11.1814961 40.3350394,11.1814961 C39.3043307,12.3535433 36.7759843,12.3677165 34.2299213,12.3677165 C31.8177165,12.3677165 28.5877953,12.3858268 30.0708661,9.89370079 L33.1488189,4.87519685 C33.7346457,3.98543307 34.0925197,3.71968504 34.5594488,3.43779528 C34.5594488,3.43779528 34.7185039,3.34566929 36.0606299,3.34566929 C36.9035433,3.34566929 38.1185039,3.27519685 37.1023622,4.87559055 L34.2775591,9.46338583 C33.9484252,9.98622047 34.0716535,10.403937 34.538189,10.403937 L36.5850394,10.403937 C37.0444882,10.403937 37.673622,9.98622047 38.0027559,9.46338583 C38.0027559,9.46338583 39.4929134,7.04566929 40.7988189,4.89724409 C41.1133858,4.36023622 41.9559055,3.27519685 42.8244094,3.27519685 L44.2385827,3.27519685 C44.8346457,3.27480315 45.5507874,3.47559055 44.6937008,4.89685039" id="Path"></path>
            <path d="M70.1338583,14.6098425 L74.7271654,14.6244094 L75.7468504,14.6279528 C76.2027559,14.6279528 76.8464567,14.2102362 77.1574803,13.6732283 L78.0401575,12.2807087 C77.4614173,12.3279528 76.8464567,12.3511811 76.1555118,12.3511811 C73.7322835,12.3511811 70.4952756,12.3838583 71.9889764,9.87401575 L75.0055118,5.00748031 C75.3271654,4.47755906 75.9602362,3.84291339 76.4122047,3.58425197 C76.4122047,3.58425197 76.5751969,3.47755906 77.9094488,3.47755906 C78.7559055,3.47755906 80.0866142,3.22440945 78.9582677,5.00748031 L76.2023622,9.46141732 C75.8767717,9.98031496 75.9783465,10.3944882 76.4519685,10.3944882 L78.3437008,10.3944882 C78.7956693,10.3944882 79.4358268,9.98031496 79.7507874,9.46141732 L82.5173228,5.00748031 C82.8358268,4.47755906 83.4649606,3.87007874 83.9098425,3.61299213 C83.9098425,3.61299213 84.1413386,3.47755906 85.4543307,3.47755906 C86.192126,3.47755906 87.6244094,3.20629921 86.4559055,5.00748031 L84.0940945,8.7996063 L83.8519685,9.23543307 L80.8318898,14.1181102 C80.5173228,14.6244094 79.8913386,15.25 79.4358268,15.5212598 C79.4358268,15.5212598 77.511811,16.588189 73.5586614,16.588189 L73.0665354,16.5755906 C69.4318898,16.5610236 69.5476378,16.2988189 69.3267717,16.1614173 C69.1208661,16.0401575 68.8712598,15.7437008 68.9216535,15.2952756 C68.9909449,14.8791339 69.4972441,14.6098425 70.1338583,14.6098425" id="Path"></path>
            <path d="M58.0015748,49.7531496 L13.1893701,49.7531496 C13.1740157,49.7070866 13.1393701,49.6858268 13.0720472,49.6937008 C9.56574803,49.526378 5.63070866,49.4283465 3.5003937,47.9444882 C2.97952756,47.5791339 2.45866142,47.0255906 2.33346457,46.3700787 C6.03582677,47.0948819 10.0633858,46.8948819 14.1212598,46.8948819 L51.1153543,46.8948819 C55.3389764,46.8948819 58.8492126,46.5047244 62.0267717,45.4933071 C68.3204724,43.492126 72.830315,39.8897638 76.3232283,35.1066929 C78.0456693,32.75 79.6779528,30.0661417 80.465748,26.8791339 C83.3011811,29.0456693 81.4059055,33.4728346 80.2330709,35.6893701 C78.8354331,38.3267717 77.0035433,40.7299213 75.0964567,42.6350394 C71.0547244,46.6775591 65.4641732,49.3456693 58.0015748,49.7531496" id="Path"></path>
        </g>
    </g>
</svg>