<?xml version="1.0" encoding="UTF-8"?>
<svg width="112px" height="50px" viewBox="0 0 112 50" version="1.1" xmlns="http://www.w3.org/2000/svg" xmlns:xlink="http://www.w3.org/1999/xlink">
    <!-- Generator: Sketch 52.6 (67491) - http://www.bohemiancoding.com/sketch -->
    <title>Blu-Ray</title>
    <desc>Created with Sketch.</desc>
    <g id="Page-1" stroke="none" stroke-width="1" fill="none" fill-rule="evenodd">
        <g id="Blu-Ray" fill="#4788C7">
            <path d="M34.7222222,13.8888889 C15.5444444,13.8888889 0,17.6194444 0,22.2222222 C0,26.825 15.5444444,30.5555556 34.7222222,30.5555556 C53.9,30.5555556 69.4444444,26.825 69.4444444,22.2222222 C69.4444444,17.6194444 53.9,13.8888889 34.7222222,13.8888889 Z M34.7222222,25 C26.2833333,25 19.4444444,23.7555556 19.4444444,22.2222222 C19.4444444,20.6888889 26.2833333,19.4444444 34.7222222,19.4444444 C43.1611111,19.4444444 50,20.6888889 50,22.2222222 C50,23.7555556 43.1611111,25 34.7222222,25 Z" id="Shape" fill-rule="nonzero"></path>
            <path d="M13.8888889,19.4444444 L23.2333333,15.1305556 C25.675,11.3166667 30.5555556,3.24166667 30.5555556,3.24166667 C30.5555556,3.24166667 30.5555556,3.24166667 30.5555556,3.01111111 L30.325,2.77777778 L11.1111111,2.77777778 C7.11666667,9.31666667 3.125,16.0888889 0.397222222,20.9555556 C0.397222222,20.9555556 2.42777778,21.2972222 2.77777778,22.2222222 C3.26111111,22.9472222 4.13888889,23.8277778 5.55555556,24.7333333 L13.8888889,19.4444444 Z" id="Path"></path>
            <path d="M56.9777778,0.00555555556 C56.9666667,0.00555555556 56.9555556,0 56.9444444,0 L54.1666667,0 C53.4027778,0 52.7777778,0.625 52.7777778,1.38888889 C52.7777778,2.15277778 53.4027778,2.77777778 54.1666667,2.77777778 L55.5555556,2.77777778 C72.2444444,2.77777778 94.4444444,7.30277778 94.4444444,22.2222222 C94.4444444,34.4083333 75.8472222,47.2222222 27.7777778,47.2222222 L26.3888889,47.2222222 C25.625,47.2222222 25,47.8472222 25,48.6111111 C25,49.375 25.625,50 26.3888889,50 L27.7777778,50 C27.7777778,50 28.1861111,50 29.1666667,50 C30.7,50 33.6666667,50 38.8888889,50 C65.5666667,50 111.111111,45.675 111.111111,22.2222222 C111.111111,3.01111111 74.4694444,0.147222222 56.9777778,0.00555555556 Z" id="Path"></path>
        </g>
    </g>
</svg>