<?xml version="1.0" encoding="UTF-8"?>
<svg width="101px" height="50px" viewBox="0 0 101 50" version="1.1" xmlns="http://www.w3.org/2000/svg" xmlns:xlink="http://www.w3.org/1999/xlink">
    <!-- Generator: Sketch 52.6 (67491) - http://www.bohemiancoding.com/sketch -->
    <title>DVD</title>
    <desc>Created with Sketch.</desc>
    <g id="Page-1" stroke="none" stroke-width="1" fill="none" fill-rule="evenodd">
        <g id="DVD" fill="#000000">
            <path d="M57.5227273,8.25555556 C57.5227273,8.25555556 50.5818182,16.8020202 50.9368687,17.3469697 C51.4292929,16.8020202 48.4449495,8.16212121 48.4449495,8.16212121 C48.4449495,8.16212121 47.8222222,6.34545455 45.8681818,0.390909091 L38.7929293,0.390909091 L21.6222222,0.390909091 L8.67424242,0.390909091 L7.38131313,5.98080808 L17.1282828,5.98080808 L19.4409091,5.98080808 C25.7111111,5.98080808 29.5393939,8.57272727 28.470202,13.1651515 C27.3151515,18.1656566 21.8424242,20.3005051 16.0131313,20.3005051 L13.8333333,20.3005051 L16.6373737,8.07424242 L6.89242424,8.07424242 L2.75505051,25.9368687 L16.5924242,25.9368687 C27.0025253,25.9368687 36.8782828,20.3474747 38.6590909,13.1651515 C38.9707071,11.8449495 38.9267677,8.52626263 38.1267677,6.57272727 C38.1267677,6.52575758 38.0808081,6.43585859 38.0368687,6.30151515 C37.9929293,6.25454545 37.9469697,5.93686869 38.1267677,5.89040404 C38.2136364,5.84393939 38.3919192,6.02727273 38.3919192,6.07121212 C38.3919192,6.07121212 38.4823232,6.30151515 38.5691919,6.48181818 L47.3772727,31.8934343 L69.8035354,6.02676768 L79.2787879,5.98030303 L81.5914141,5.98030303 C87.8661616,5.98030303 91.7378788,8.57222222 90.6666667,13.1646465 C89.510101,18.1651515 83.9974747,20.3 78.1666667,20.3 L75.9419192,20.3 L78.7878788,8.07424242 L69.0469697,8.07424242 L64.9065657,25.9368687 L78.7439394,25.9368687 C89.1535354,25.9368687 99.1191919,20.3474747 100.766162,13.1651515 C102.456566,5.98080808 95.159596,0.390909091 84.660101,0.390909091 L75.4969697,0.390909091 L64.0186869,0.390909091 C58.5469697,6.98131313 57.5227273,8.25555556 57.5227273,8.25555556 Z" id="Path"></path>
            <path d="M47.6888889,31.9843434 C21.3540404,31.9843434 0,35.0752525 0,38.8949495 C0,42.7121212 21.3540404,45.8030303 47.6888889,45.8030303 C74.0722222,45.8030303 95.4282828,42.7121212 95.4282828,38.8949495 C95.4287879,35.0752525 74.0727273,31.9843434 47.6888889,31.9843434 Z M45.9989899,41.35 C39.9484848,41.35 35.1,40.3035354 35.1,39.0292929 C35.1,37.7550505 39.9479798,36.7111111 45.9989899,36.7111111 C52.0030303,36.7111111 56.8565657,37.7545455 56.8565657,39.0292929 C56.8565657,40.3035354 52.0030303,41.35 45.9989899,41.35 Z" id="Shape" fill-rule="nonzero"></path>
            <polygon id="Path" points="89.819697 45.7752525 89.819697 45.2792929 86.9181818 45.2792929 86.7974747 45.7752525 88.0055556 45.7752525 87.5181818 49.6090909 88.1262626 49.6090909 88.6085859 45.7752525"></polygon>
            <polygon id="Path" points="94.1681818 49.6090909 94.1681818 45.2792929 93.6888889 45.2792929 92.1131313 48.2494949 91.3979798 45.2792929 90.9156566 45.2792929 89.5757576 49.6090909 90.0691919 49.6090909 91.1489899 46.2712121 91.8772727 49.6090909 93.5737374 46.2712121 93.6888889 49.6090909"></polygon>
        </g>
    </g>
</svg>